<?xml version="1.0" encoding="UTF-8"?>
<svg id="Capa_1" data-name="Capa 1" xmlns="http://www.w3.org/2000/svg" viewBox="0 0 2496 2586.45">
  <defs>
    <style>
      .cls-1 {
        fill: #128247;
      }

      .cls-2 {
        fill: #0ca85a;
      }

      .cls-3 {
        fill: #d8e6ef;
      }

      .cls-4 {
        fill: #98a2a8;
      }
    </style>
  </defs>
  <g>
    <g>
      <path class="cls-2" d="M1482.7,710.9c-17.5-.3-32.6,11.1-46.7,18.6-332.9,176.6,26.5,807.3-257.7,990.3-11.7,7.5-28.5,18.8-51,30.2,28.8-5.1,43.8-10,62-18.2,106.4-48.2,150.1-124.6,153.2-242.6,56.3-6.2,108.4-26.4,160.3-47.5v117.3c0,73.3-77.6,195.5-134.7,240.8-142.4,113.1-304,99.4-464,35.9-294.6-116.8-516.8-406.2-548.1-722.6h-134.1c36.1-33.2,218.8-316.7,238.1-321.9,19.2-5.1,202.7,289.8,231.3,321.9h-134.1c35.1,210.8,189.2,434.9,389,519.5,282.7,119.8,352.3-221,127.5-348.7-15.5-8.8-43.3-26.9-60.4-20,62.2,43,112.9,92.7,140.8,164.3-138.7,12.2-256-105.1-252-241.8,86.6-26.8,203-5.7,261.5,68.1l57.6,113.5v-217.9c0-2.3-14.6-38.8-17.2-43.1-41.9-68.9-182.7-56-243-159.4-87-149.5,14.8-322.8,179.6-344.1-2.1,45.4,28.2,79.7,40.3,120.7-68.1,4.1-119.4,59.9-98.6,128.9,17.6,58.6,69.7,63,108.6,99.2,14.4,13.4,22.5,30.6,35,45.1,4.1,4.8-.3,12.7,15.4,8.5l-7-271.2c-10.9-31.6-35-57.2-44.7-89.4-29.6-98.2,13.5-187.5,95.5-242.5,46.5,59.3,77.8,114.9,59,192.8-6.5,27-32.5,76.3-62.4,81.7v-56.9c-.1,0-13.4-97.3-13.4-97.3-27.6,103.5-8.7,211.2,6.7,315.1l48-116.2c63.4-90.7,171.3-104.1,273.8-84.9-9.9,135.7-96.3,244.1-241.4,234.6-19-19,78.3-118,95.5-133.5,8-7.4,22.2-15.1,32-27.3h-.2Z"/>
      <path class="cls-1" d="M2274,891.8l-238.1,321.9-231.3-321.9h134.1c-46.7-296.4-294.9-547.6-596.8-576.7l33.4-37,87.2-66.9c-5.7-13.5-105.9-71.3-126.8-87.8-2.8-2.2-19.4-13-10.6-16.3,383.8,31.9,704.7,303.4,799.3,676,9,35.4,8.9,78.7,25.4,108.7h124.2Z"/>
      <path class="cls-2" d="M1066.9,456v-127.4c-244.3,68.7-445.1,264.1-496.3,516.3-9.6,9.8-95.4-134-103.9-134l-104,123.9c56.4-314.6,286.3-575.8,586.7-680.7,19.9-6.9,106.3-26.4,110.9-29.9,20.2-15.2-4.9-98.1,0-124.2l321.7,211.2-315,244.8h-.1Z"/>
      <path class="cls-1" d="M1938.6,1160.1l90.7,133.9,103.9-127.3c-67.2,408.7-431.6,719.9-844.9,737.5l103.7-67.2c67.5-29.8,106-161.5,140.8-194.4,14.3-13.5,47.3-22.8,65.9-34.7,135-85.7,237.9-195.2,298.1-345.6,11.2-27.9,18.1-77.6,28.4-98.2,3.7-7.5,6.2-4.5,13.3-4.1l.1.1Z"/>
      <path class="cls-2" d="M1328.5,958.9c152.7,18.9,280,84.8,268.5,258.5-9.6,145.8-125.3,207-255,231.1-5.6-6.9-10.4-119.6-5.9-126.5,5.4-8.2,89.6-10.5,108.5-82.6,23-87.3-38.1-132.3-116.1-146.3v-134.2Z"/>
    </g>
    <g>
      <g>
        <path class="cls-3" d="M0,2083.2c0-33,17.1-43.4,43.3-43.4h173.6c21.6,0,37.4,6.3,37.4,29.8s-15.8,29.8-37.4,29.8H74v70.5h125.3c19.4,0,34.7,5.4,34.7,28.5s-15.3,28.5-34.7,28.5h-125.3v78.7h146.5c21.6,0,37.4,6.3,37.4,29.8s-15.8,29.8-37.4,29.8H43.3c-26.2.1-43.3-10.3-43.3-43.3v-238.7Z"/>
        <path class="cls-3" d="M455.4,2032.1c84.8,0,131.2,53.3,131.2,85s-11.3,33.5-33.4,33.5c-42.8,0-30.2-58.8-97.8-58.8s-84.8,40.2-84.8,110.8,23.4,110.8,87.5,110.8,56.8-62.4,92.4-62.4,36.1,10.4,36.1,28.5c0,47-56.8,93.6-128.5,93.6-101.5,0-161.4-58.3-161.4-170.4s54.1-170.4,158.7-170.4v-.2Z"/>
        <path class="cls-3" d="M782.3,2032.1c106.4,0,164.1,71,164.1,166.4s-53.2,174.5-164.1,174.5-164.1-76-164.1-174.5,57.7-166.4,164.1-166.4h0ZM782.3,2313.3c67.2,0,90.2-52.4,90.2-114.8s-29.8-106.7-90.2-106.7-90.2,44.3-90.2,106.7,20.7,114.8,90.2,114.8Z"/>
        <path class="cls-3" d="M1148.8,2032.1c84.8,0,131.2,53.3,131.2,85s-11.3,33.5-33.4,33.5c-42.8,0-30.2-58.8-97.8-58.8s-84.8,40.2-84.8,110.8,23.4,110.8,87.5,110.8,56.8-62.4,92.4-62.4,36.1,10.4,36.1,28.5c0,47-56.8,93.6-128.5,93.6-101.5,0-161.4-58.3-161.4-170.4s54.1-170.4,158.7-170.4v-.2Z"/>
        <path class="cls-3" d="M1398.6,2056.5c6.3-16.7,18-22.6,36.1-22.6h17.6c16.7,0,31.6,4.1,39.7,27.1l89.3,249.1c2.7,7.2,7.2,20.3,7.2,28.5,0,18.1-15.8,32.5-34.7,32.5s-28-5.9-33.4-20.3l-18.9-54.2h-119l-19.4,54.2c-5,14.5-15.3,20.3-32.9,20.3s-34.3-12.7-34.3-32.5,4.5-21.3,7.2-28.5l95.6-253.6h-.1ZM1443.2,2114.4h-.9l-43.7,130.7h86.6l-41.9-130.7h-.1Z"/>
        <path class="cls-3" d="M1625.4,2077.3c0-30.7,14.9-43.4,46.4-43.4s28.9,5.9,37,19.4l129.4,209.3h.9v-193c0-24,13.5-35.7,35.6-35.7s35.6,11.8,35.6,35.7v255.4c0,29.4-12.6,46.1-43.7,46.1s-31.1-5-40.6-19.9l-128.5-203.4h-.9v187.6c0,24-13.5,35.7-35.6,35.7s-35.6-11.8-35.6-35.7v-258.1h0Z"/>
        <path class="cls-3" d="M2167.8,2263.6c0,68.3-37.9,109.4-110.9,109.4s-105.5-59.2-105.5-91.3,12.6-45.2,35.2-45.2,33.4,20.8,33.4,43,9.9,36.6,36.1,36.6,37.9-18.1,37.9-53.3v-191.7c0-22.2,14.4-37.1,37-37.1s37,14.9,37,37.1v192.6l-.2-.1Z"/>
        <path class="cls-3" d="M2238.1,2083.2c0-33,17.1-43.4,43.3-43.4h173.6c21.6,0,37.4,6.3,37.4,29.8s-15.8,29.8-37.4,29.8h-142.9v70.5h125.3c19.4,0,34.7,5.4,34.7,28.5s-15.3,28.5-34.7,28.5h-125.3v78.7h146.5c21.6,0,37.4,6.3,37.4,29.8s-15.8,29.8-37.4,29.8h-177.2c-26.2,0-43.3-10.4-43.3-43.4v-238.7.1Z"/>
      </g>
      <path class="cls-3" d="M1335.2,1274.1v-134.1c97.4,8.6,99.3,131.3,0,134.1Z"/>
      <path class="cls-3" d="M1194.4,898.5c-96-30.3-105.3-119.1,0-140.8v140.8Z"/>
    </g>
  </g>
  <g>
    <path class="cls-4" d="M645.02,2542.42c-1.08,7.1-.63,12.86,1.36,17.29,3.86,8.29,12.89,12.43,27.08,12.43,6.36,0,12.35-.91,17.97-2.72,10.84-3.52,17.23-9.82,19.16-18.91,1.48-6.81.37-11.67-3.32-14.56-3.69-2.84-9.91-5.31-18.65-7.41l-16.18-3.83c-10.5-2.5-17.74-5.25-21.71-8.26-6.81-5.22-9.11-13.03-6.9-23.42,2.38-11.24,8.23-20.47,17.54-27.68s21.09-10.82,35.34-10.82c13.12,0,23.57,3.17,31.38,9.5,7.81,6.33,10.23,16.45,7.28,30.36h-15.92c.57-6.7-.14-11.84-2.13-15.41-3.8-6.53-11.89-9.79-24.27-9.79-9.99,0-17.62,2.1-22.87,6.3-5.25,4.2-8.47,9.08-9.67,14.65-1.31,6.13.28,10.62,4.77,13.46,2.95,1.82,10.05,4.09,21.29,6.81l16.69,4c8.06,1.93,14.02,4.57,17.88,7.92,6.76,5.85,8.94,14.34,6.56,25.46-2.95,13.85-10.11,23.76-21.46,29.72-11.36,5.96-23.7,8.94-37.04,8.94-15.56,0-26.88-3.97-33.98-11.92-7.1-7.89-9.14-18.59-6.13-32.11h15.93Z"/>
    <path class="cls-4" d="M826.66,2505.89c2.1,4.6,3.01,9.96,2.72,16.09.06,4.2-.91,10.9-2.89,20.1h-66.85c-1.7,9.25-1.09,16.68,1.83,22.27,2.92,5.59,8.67,8.39,17.24,8.39,8.01,0,14.93-2.64,20.78-7.92,3.41-3.07,6.1-6.61,8.09-10.65h15.07c-1.14,3.35-3.25,7.08-6.35,11.2-3.09,4.12-6.32,7.48-9.67,10.09-5.62,4.54-12.04,7.61-19.25,9.2-3.92.91-8.2,1.36-12.86,1.36-11.36,0-20.1-4.13-26.23-12.39-6.13-8.26-7.61-19.83-4.43-34.7,3.12-14.65,9.62-26.54,19.5-35.68,9.88-9.14,21.23-13.71,34.06-13.71,6.47,0,12.43,1.52,17.88,4.56,5.45,3.04,9.22,6.97,11.33,11.79ZM813.29,2529.9c.79-6.64.48-11.95-.94-15.92-2.61-7.38-8.83-11.07-18.65-11.07-7.04,0-13.48,2.54-19.33,7.62-5.85,5.08-9.77,11.54-11.75,19.37h50.67Z"/>
    <path class="cls-4" d="M856.47,2491.58h14.56l-3.32,15.75c1.82-3.07,5.52-6.8,11.11-11.2,5.59-4.4,11.42-6.6,17.5-6.6.28,0,.77.03,1.45.08.68.06,1.82.17,3.41.34l-3.41,16.18c-.91-.17-1.73-.28-2.47-.34-.74-.06-1.56-.09-2.47-.09-7.72,0-14.18,2.48-19.37,7.45s-8.5,10.69-9.92,17.16l-11.07,52.46h-15.33l19.33-91.21Z"/>
    <path class="cls-4" d="M921.61,2491.58l8.6,74.26,41.22-74.26h16.78l-53.74,91.21h-16.35l-14.31-91.21h17.8Z"/>
    <path class="cls-4" d="M1068.94,2505.89c2.1,4.6,3.01,9.96,2.73,16.09.05,4.2-.91,10.9-2.9,20.1h-66.85c-1.7,9.25-1.09,16.68,1.83,22.27,2.92,5.59,8.67,8.39,17.24,8.39,8.01,0,14.93-2.64,20.78-7.92,3.41-3.07,6.1-6.61,8.09-10.65h15.07c-1.14,3.35-3.25,7.08-6.34,11.2-3.1,4.12-6.32,7.48-9.67,10.09-5.62,4.54-12.04,7.61-19.25,9.2-3.92.91-8.21,1.36-12.86,1.36-11.36,0-20.1-4.13-26.23-12.39-6.13-8.26-7.61-19.83-4.43-34.7,3.12-14.65,9.62-26.54,19.5-35.68,9.88-9.14,21.23-13.71,34.06-13.71,6.47,0,12.43,1.52,17.88,4.56,5.45,3.04,9.23,6.97,11.33,11.79ZM1055.57,2529.9c.79-6.64.48-11.95-.94-15.92-2.61-7.38-8.83-11.07-18.65-11.07-7.04,0-13.48,2.54-19.33,7.62-5.85,5.08-9.77,11.54-11.75,19.37h50.67Z"/>
    <path class="cls-4" d="M1098.75,2491.58h14.56l-3.32,15.75c1.82-3.07,5.52-6.8,11.11-11.2,5.59-4.4,11.42-6.6,17.5-6.6.28,0,.77.03,1.45.08.68.06,1.82.17,3.41.34l-3.41,16.18c-.91-.17-1.73-.28-2.47-.34-.74-.06-1.56-.09-2.47-.09-7.72,0-14.18,2.48-19.37,7.45s-8.5,10.69-9.92,17.16l-11.07,52.46h-15.33l19.33-91.21Z"/>
    <path class="cls-4" d="M1213.71,2457.69h53.74c14.65,0,24.13,4.37,28.44,13.12,2.55,5.17,3.09,11.13,1.62,17.88-1.65,7.89-5.25,14.36-10.81,19.42-2.9,2.67-6.76,5.11-11.58,7.32,5.85,2.44,10.05,5.19,12.6,8.26,4.48,5.45,5.71,12.97,3.66,22.57-1.7,8.06-5.79,15.36-12.26,21.89-9.59,9.77-22.62,14.65-39.09,14.65h-52.88l26.57-125.1ZM1243.35,2568.31c10.39,0,18.42-3.01,24.1-9.03,3.58-3.8,5.96-8.4,7.15-13.8,1.93-9.08-.82-15.27-8.26-18.57-3.92-1.76-9.42-2.64-16.52-2.64h-33.64l-9.37,44.03h36.53ZM1249.91,2510.57c7.15,0,12.91-.99,17.29-2.98,6.93-3.12,11.24-8.74,12.95-16.86,1.76-8.17-.37-13.68-6.39-16.52-3.46-1.59-8.88-2.38-16.27-2.38h-30.23l-8.18,38.75h30.83Z"/>
    <path class="cls-4" d="M1362.4,2527.52c3.63-.45,6.33-1.93,8.09-4.43.96-1.36,1.7-3.32,2.21-5.88,1.13-5.22.09-9.01-3.15-11.37-3.24-2.36-8.32-3.53-15.24-3.53-8.01,0-14.14,2.16-18.39,6.47-2.38,2.38-4.34,5.93-5.88,10.64h-14.31c2.67-11.24,7.98-19.06,15.93-23.46,7.95-4.4,16.55-6.6,25.8-6.6,10.73,0,18.99,2.04,24.78,6.13,5.79,4.09,7.78,10.45,5.96,19.08l-11.16,52.54c-.34,1.59-.3,2.87.13,3.83.43.97,1.69,1.45,3.79,1.45.68,0,1.46-.04,2.34-.13.88-.08,1.83-.21,2.85-.38l-2.47,11.33c-2.5.68-4.39,1.11-5.66,1.28s-2.99.26-5.15.26c-5.28,0-8.71-1.87-10.3-5.62-.85-1.99-1.13-4.8-.85-8.43-4.03,4.09-9.28,7.64-15.75,10.65-6.47,3.01-13.23,4.51-20.27,4.51-8.46,0-14.83-2.57-19.12-7.71-4.29-5.14-5.61-11.57-3.96-19.29,1.82-8.46,5.86-15.02,12.13-19.67,6.27-4.66,13.81-7.52,22.61-8.6l25.04-3.07ZM1332,2572.83c5.39,0,10.9-1.25,16.52-3.75,9.37-4.14,15.07-10.93,17.12-20.35l2.55-12.35c-2.1,1.19-4.71,2.19-7.83,2.98-3.12.8-6.13,1.36-9.03,1.7l-9.54,1.19c-5.74.74-10.16,1.9-13.29,3.49-5.28,2.67-8.55,6.93-9.79,12.77-.96,4.43-.1,7.92,2.6,10.47s6.26,3.83,10.69,3.83Z"/>
    <path class="cls-4" d="M1483.59,2522.24h-14.9c.28-5.62-.79-10.29-3.23-14.01-2.44-3.72-7.24-5.58-14.39-5.58-9.77,0-17.77,4.77-24.02,14.31-4.03,6.19-7.01,13.83-8.94,22.91-1.99,9.14-1.7,16.83.85,23.08,2.55,6.25,7.97,9.37,16.27,9.37,6.36,0,11.81-1.94,16.35-5.83,4.54-3.89,8.23-9.21,11.07-15.97h14.9c-4.26,12.09-10.39,20.94-18.39,26.53-8.01,5.59-17.32,8.39-27.93,8.39-11.92,0-20.51-4.36-25.76-13.07-5.25-8.71-6.49-19.6-3.71-32.66,3.41-16.01,9.95-28.47,19.63-37.39,9.68-8.91,20.54-13.37,32.57-13.37,10.28,0,18.1,2.5,23.46,7.49,5.37,5,7.42,13.6,6.17,25.8Z"/>
    <path class="cls-4" d="M1512.29,2457.69h14.73l-15.5,72.64,47.61-38.75h19.59l-42.15,34.15,24.78,57.06h-19.59l-18.74-45.99-15.33,11.75-7.24,34.23h-14.73l26.57-125.1Z"/>
    <path class="cls-4" d="M1660.21,2505.89c2.1,4.6,3.01,9.96,2.73,16.09.05,4.2-.91,10.9-2.9,20.1h-66.85c-1.7,9.25-1.09,16.68,1.83,22.27,2.92,5.59,8.67,8.39,17.24,8.39,8.01,0,14.93-2.64,20.78-7.92,3.41-3.07,6.1-6.61,8.09-10.65h15.07c-1.14,3.35-3.25,7.08-6.34,11.2-3.1,4.12-6.32,7.48-9.67,10.09-5.62,4.54-12.04,7.61-19.25,9.2-3.92.91-8.21,1.36-12.86,1.36-11.36,0-20.1-4.13-26.23-12.39-6.13-8.26-7.61-19.83-4.43-34.7,3.12-14.65,9.62-26.54,19.5-35.68,9.88-9.14,21.23-13.71,34.06-13.71,6.47,0,12.43,1.52,17.88,4.56,5.45,3.04,9.23,6.97,11.33,11.79ZM1646.84,2529.9c.79-6.64.48-11.95-.94-15.92-2.61-7.38-8.83-11.07-18.65-11.07-7.04,0-13.48,2.54-19.33,7.62-5.85,5.08-9.77,11.54-11.75,19.37h50.67Z"/>
    <path class="cls-4" d="M1689.59,2491.58h14.56l-2.72,12.94c5.45-5.33,10.83-9.17,16.14-11.5,5.31-2.33,10.91-3.49,16.82-3.49,12.95,0,20.72,4.51,23.33,13.54,1.48,4.94,1.25,12.01-.68,21.21l-12.43,58.5h-15.58l12.18-57.48c1.19-5.56,1.33-10.05.43-13.46-1.53-5.68-5.88-8.52-13.03-8.52-3.63,0-6.7.37-9.2,1.11-4.49,1.25-8.71,3.75-12.69,7.49-3.18,3.01-5.49,6.12-6.94,9.33-1.45,3.21-2.8,7.79-4.04,13.75l-10.13,47.77h-15.33l19.33-91.21Z"/>
    <path class="cls-4" d="M1836.32,2494.39c2.38,1.7,4.86,4.68,7.41,8.94l9.79-46.07h14.73l-26.65,125.53h-13.8l2.64-12.69c-4.77,5.62-9.87,9.68-15.29,12.18-5.42,2.5-11.28,3.75-17.58,3.75-10.16,0-18.05-4.27-23.68-12.82-5.62-8.54-6.9-19.91-3.83-34.11,2.78-13.29,8.6-24.79,17.46-34.53,8.86-9.74,19.59-14.6,32.19-14.6,6.98,0,12.52,1.48,16.61,4.43ZM1805.24,2572.66c7.1,0,13.57-3.05,19.42-9.16,5.85-6.1,9.99-14.86,12.43-26.27,2.44-11.52,1.9-20.06-1.62-25.59s-8.74-8.3-15.67-8.3c-7.72,0-14.61,2.95-20.65,8.86-6.05,5.91-10.29,14.59-12.73,26.06-2.1,9.77-1.78,17.94.98,24.53,2.75,6.59,8.7,9.88,17.84,9.88Z"/>
  </g>
</svg>